custom-analysis
version=1
nRows=6
nColumns=98
inDegrees=no

This file contains tibia displacement and acting force.

Units are S.I. units (seconds, meters, Newtons, ...)
Angles are in degrees.

endheader
time	APT	SIT	knee_angle	aACL_R_force	pACL_R_force	aPCL_R_force	pPCL_R_force	aMCL_R_force	mMCL_R_force	pMCL_R_force	aLCL_R_force	mLCL_R_force	pLCL_R_force	aPCL_L_force	pPCL_L_force	aMCL_L_force	aLCL_L_force	aACL_R_length	pACL_R_length	aPCL_R_length	pPCL_R_length	aMCL_R_length	mMCL_R_length	pMCL_R_length	aLCL_R_length	mLCL_R_length	pLCL_R_length	aPCL_L_length	pPCL_L_length	aMCL_L_length	aLCL_L_length	aACL_R_strain	pACL_R_strain	aPCL_R_strain	pPCL_R_strain	aMCL_R_strain	mMCL_R_strain	pMCL_R_strain	aLCL_R_strain	mLCL_R_strain	pLCL_R_strain	aPCL_L_strain	pPCL_L_strain	aMCL_L_strain	aLCL_L_strain	femur_lat_meniscii_r.femur_lat_r.force.X	femur_lat_meniscii_r.femur_lat_r.force.Y	femur_lat_meniscii_r.femur_lat_r.force.Z	femur_lat_meniscii_r.femur_lat_r.torque.X	femur_lat_meniscii_r.femur_lat_r.torque.Y	femur_lat_meniscii_r.femur_lat_r.torque.Z	femur_lat_meniscii_r.meniscus_lat_r.force.X	femur_lat_meniscii_r.meniscus_lat_r.force.Y	femur_lat_meniscii_r.meniscus_lat_r.force.Z	femur_lat_meniscii_r.meniscus_lat_r.torque.X	femur_lat_meniscii_r.meniscus_lat_r.torque.Y	femur_lat_meniscii_r.meniscus_lat_r.torque.Z	femur_med_meniscii_r.femur_med_r.force.X	femur_med_meniscii_r.femur_med_r.force.Y	femur_med_meniscii_r.femur_med_r.force.Z	femur_med_meniscii_r.femur_med_r.torque.X	femur_med_meniscii_r.femur_med_r.torque.Y	femur_med_meniscii_r.femur_med_r.torque.Z	femur_med_meniscii_r.meniscus_med_r.force.X	femur_med_meniscii_r.meniscus_med_r.force.Y	femur_med_meniscii_r.meniscus_med_r.force.Z	femur_med_meniscii_r.meniscus_med_r.torque.X	femur_med_meniscii_r.meniscus_med_r.torque.Y	femur_med_meniscii_r.meniscus_med_r.torque.Z	femur_med_tibia_r.tibia_upper_r.force.X	femur_med_tibia_r.tibia_upper_r.force.Y	femur_med_tibia_r.tibia_upper_r.force.Z	femur_med_tibia_r.tibia_upper_r.torque.X	femur_med_tibia_r.tibia_upper_r.torque.Y	femur_med_tibia_r.tibia_upper_r.torque.Z	femur_med_tibia_r.femur_med_r.force.X	femur_med_tibia_r.femur_med_r.force.Y	femur_med_tibia_r.femur_med_r.force.Z	femur_med_tibia_r.femur_med_r.torque.X	femur_med_tibia_r.femur_med_r.torque.Y	femur_med_tibia_r.femur_med_r.torque.Z	femur_lat_tibia_r.tibia_upper_r.force.X	femur_lat_tibia_r.tibia_upper_r.force.Y	femur_lat_tibia_r.tibia_upper_r.force.Z	femur_lat_tibia_r.tibia_upper_r.torque.X	femur_lat_tibia_r.tibia_upper_r.torque.Y	femur_lat_tibia_r.tibia_upper_r.torque.Z	femur_lat_tibia_r.femur_lat_r.force.X	femur_lat_tibia_r.femur_lat_r.force.Y	femur_lat_tibia_r.femur_lat_r.force.Z	femur_lat_tibia_r.femur_lat_r.torque.X	femur_lat_tibia_r.femur_lat_r.torque.Y	femur_lat_tibia_r.femur_lat_r.torque.Z	femur_lat_meniscii_force_r	femur_med_meniscii_force_r	femur_lat_tibia_force_r	femur_med_tibia_force_r
      0.16676619	      0.01307217	      0.01760494	     57.97452599	     -0.37378041	      0.00000000	    597.13734716	    382.51218078	      0.00000000	      0.00000000	      0.00000000	      0.00000000	      0.00000000	      0.00000000	      0.00000000	      0.00000000	      0.00000001	      0.00000000	      0.03138618	      0.02411187	      0.03506195	      0.03248674	      0.05960494	      0.05919488	      0.05623540	      0.05263242	      0.04785759	      0.04293549	      0.01525851	      0.01651186	      0.06550154	      0.04489616	      0.01227776	     -0.03778441	      0.12756415	      0.08695641	     -0.00703114	     -0.01001151	     -0.04244314	     -0.05975259	     -0.15023466	     -0.17972340	      0.00000079	     -0.32847694	      0.00000060	     -0.00000086	    126.37901236	    206.64072667	     25.15558388	    -15.08059174	      3.09439169	     49.59792557	   -126.37901236	   -206.64072667	    -25.15558388	      5.66352055	     -3.81074702	      3.59695746	     29.78866078	     23.93119745	     11.31817448	     -4.01216596	     -0.66577326	     11.93920110	    -29.78866078	    -23.93119745	    -11.31817448	     -0.32841716	      0.38408498	      0.08051960	   -757.80964954	   -674.54892181	    225.11511818	    -15.57462733	     17.19804790	     -0.84350696	    757.80964954	    674.54892181	   -225.11511818	    103.63376883	    -13.62131005	    307.99636447	      0.00000000	      0.00000000	      0.00000000	      0.00000000	      0.00000000	      0.00000000	      0.00000000	      0.00000000	      0.00000000	      0.00000000	      0.00000000	      0.00000000	    243.52586738	     39.85182048	      0.00000000	   1039.21534307
      0.16696095	      0.01308446	      0.01764236	     58.07922637	     -0.48576997	      0.00000000	    599.12540702	    383.67813275	      0.00000000	      0.00000000	      0.00000000	      0.00000000	      0.00000000	      0.00000000	      0.00000000	      0.00000000	      0.00000001	      0.00000000	      0.03138540	      0.02411205	      0.03507299	      0.03249316	      0.05961443	      0.05919676	      0.05623239	      0.05262566	      0.04784637	      0.04292171	      0.01525851	      0.01651186	      0.06550154	      0.04489616	      0.01225267	     -0.03777732	      0.12791921	      0.08717147	     -0.00687303	     -0.00997999	     -0.04249441	     -0.05987326	     -0.15043388	     -0.17998667	      0.00000079	     -0.32847694	      0.00000060	     -0.00000086	    126.54089340	    206.57557144	     25.14344214	    -15.07685577	      3.09562939	     49.65786016	   -126.54089340	   -206.57557144	    -25.14344214	      5.66408006	     -3.81314309	      3.60938315	     29.77256275	     23.74010422	     11.22404149	     -3.97948377	     -0.66425258	     11.93216422	    -29.77256275	    -23.74010422	    -11.22404149	     -0.32527266	      0.38409630	      0.07906813	   -760.21901120	   -674.32649282	    224.62581330	    -15.54177227	     17.22107133	     -0.83413954	    760.21901120	    674.32649282	   -224.62581330	    103.41963108	    -13.65191521	    308.96077221	      0.00000000	      0.00000000	      0.00000000	      0.00000000	      0.00000000	      0.00000000	      0.00000000	      0.00000000	      0.00000000	      0.00000000	      0.00000000	      0.00000000	    243.55339681	     39.69857867	      0.00000000	   1040.72374812
      0.16725287	      0.01310268	      0.01769846	     58.23615296	     -0.56704354	      0.00000000	    602.06054813	    385.30784830	      0.00000000	      0.00000000	      0.00000000	      0.00000000	      0.00000000	      0.00000000	      0.00000000	      0.00000000	      0.00000001	      0.00000000	      0.03138417	      0.02411228	      0.03508955	      0.03250285	      0.05962866	      0.05919963	      0.05622797	      0.05261547	      0.04782952	      0.04290106	      0.01525851	      0.01651186	      0.06550154	      0.04489616	      0.01221285	     -0.03776807	      0.12845199	      0.08749552	     -0.00663599	     -0.00993198	     -0.04256961	     -0.06005526	     -0.15073317	     -0.18038127	      0.00000079	     -0.32847694	      0.00000060	     -0.00000086	    126.71408090	    206.50794040	     25.47255842	    -15.20711581	      3.10025109	     49.71881983	   -126.71408090	   -206.50794040	    -25.47255842	      5.66649143	     -3.82669133	      3.63063588	     29.83269157	     23.58039298	     11.14391287	     -3.95064596	     -0.66457446	     11.95515626	    -29.83269157	    -23.58039298	    -11.14391287	     -0.32379058	      0.38532097	      0.07857511	   -762.89285691	   -674.31799774	    224.86805193	    -15.52040307	     17.27467422	     -0.78309248	    762.89285691	    674.31799774	   -224.86805193	    103.50429832	    -13.69505191	    310.01372067	      0.00000000	      0.00000000	      0.00000000	      0.00000000	      0.00000000	      0.00000000	      0.00000000	      0.00000000	      0.00000000	      0.00000000	      0.00000000	      0.00000000	    243.62027621	     39.62589070	      0.00000000	   1042.72523417
      0.16808851	      0.01315370	      0.01785926	     58.68541490	     -0.61520938	      0.00000000	    610.33467446	    389.68378047	      0.00000000	      0.00000000	      0.00000000	      0.00000000	      0.00000000	      0.00000000	      0.00000000	      0.00000000	      0.00000001	      0.00000000	      0.03138049	      0.02411299	      0.03513689	      0.03253070	      0.05966937	      0.05920809	      0.05621591	      0.05258586	      0.04778098	      0.04284187	      0.01525851	      0.01651186	      0.06550154	      0.04489616	      0.01209437	     -0.03773984	      0.12997445	      0.08842744	     -0.00595775	     -0.00979052	     -0.04277508	     -0.06058425	     -0.15159502	     -0.18151199	      0.00000079	     -0.32847694	      0.00000060	     -0.00000086	    127.79717622	    207.53682905	     26.31577560	    -15.59047459	      3.12388511	     50.12001720	   -127.79717622	   -207.53682905	    -26.31577560	      5.72379096	     -3.87484121	      3.71785463	     30.03195717	     22.93396516	     10.67746421	     -3.77801213	     -0.66667577	     12.03337045	    -30.03195717	    -22.93396516	    -10.67746421	     -0.31817267	      0.39504235	      0.07119628	   -772.52834342	   -672.58120954	    226.00186580	    -15.44713918	     17.46655073	     -0.74047937	    772.52834342	    672.58120954	   -226.00186580	    103.90258090	    -13.85073646	    313.86295888	      0.00000000	      0.00000000	      0.00000000	      0.00000000	      0.00000000	      0.00000000	      0.00000000	      0.00000000	      0.00000000	      0.00000000	      0.00000000	      0.00000000	    245.14520943	     39.26695113	      0.00000000	   1048.92438629
      0.16836288	      0.01317015	      0.01791212	     58.83294724	     -0.63633354	      0.00000000	    613.02984216	    391.09502320	      0.00000000	      0.00000000	      0.00000000	      0.00000000	      0.00000000	      0.00000000	      0.00000000	      0.00000000	      0.00000001	      0.00000000	      0.03137929	      0.02411328	      0.03515237	      0.03253985	      0.05968273	      0.05921094	      0.05621212	      0.05257598	      0.04776494	      0.04282240	      0.01525851	      0.01651186	      0.06550154	      0.04489616	      0.01205570	     -0.03772821	      0.13047223	      0.08873346	     -0.00573518	     -0.00974285	     -0.04283951	     -0.06076079	     -0.15187993	     -0.18188403	      0.00000079	     -0.32847694	      0.00000060	     -0.00000086	    128.11542784	    206.55298284	     25.87796348	    -15.38286624	      3.12373117	     50.25341606	   -128.11542784	   -206.55298284	    -25.87796348	      5.68359851	     -3.86756622	      3.70242103	     30.01278047	     22.69206445	     10.55072304	     -3.73276073	     -0.66538082	     12.02474649	    -30.01278047	    -22.69206445	    -10.55072304	     -0.31514008	      0.39584869	      0.06968516	   -775.82865786	   -671.45271633	    226.28935791	    -15.41018358	     17.52789487	     -0.74716114	    775.82865786	    671.45271633	   -226.28935791	    103.98693669	    -13.90224328	    315.18897913	      0.00000000	      0.00000000	      0.00000000	      0.00000000	      0.00000000	      0.00000000	      0.00000000	      0.00000000	      0.00000000	      0.00000000	      0.00000000	      0.00000000	    244.43274446	     39.07703337	      0.00000000	   1050.69773490
      0.16884128	      0.01319835	      0.01800441	     59.09018069	     -0.93772451	      0.00000000	    617.81049326	    393.81350247	      0.00000000	      0.00000000	      0.00000000	      0.00000000	      0.00000000	      0.00000000	      0.00000000	      0.00000000	      0.00000001	      0.00000000	      0.03137706	      0.02411373	      0.03517932	      0.03255584	      0.05970599	      0.05921597	      0.05620572	      0.05255853	      0.04773680	      0.04278838	      0.01525851	      0.01651186	      0.06550154	      0.04489616	      0.01198378	     -0.03771040	      0.13133893	      0.08926857	     -0.00534780	     -0.00965868	     -0.04294853	     -0.06107255	     -0.15237951	     -0.18253393	      0.00000079	     -0.32847694	      0.00000060	     -0.00000086	    129.56276425	    202.60106213	     24.16234232	    -14.55650522	      3.13554165	     50.87811125	   -129.56276425	   -202.60106213	    -24.16234232	      5.51432520	     -3.84791471	      3.58090426	     30.44902069	     22.69123475	     10.44055204	     -3.68706030	     -0.67706072	     12.20255658	    -30.44902069	    -22.69123475	    -10.44055204	     -0.31887651	      0.40814935	      0.06487750	   -781.12401147	   -670.16179687	    227.79444796	    -15.37949117	     17.65272597	     -0.72790367	    781.12401147	    670.16179687	   -227.79444796	    104.55733568	    -13.98786328	    317.30720244	      0.00000000	      0.00000000	      0.00000000	      0.00000000	      0.00000000	      0.00000000	      0.00000000	      0.00000000	      0.00000000	      0.00000000	      0.00000000	      0.00000000	    241.69716391	     39.38324673	      0.00000000	   1054.11662818
